<svg width="70" height="70" viewBox="0 0 70 70" fill="none" xmlns="http://www.w3.org/2000/svg">
<path d="M70 8.11594H0V57.5725H70V8.11594Z" fill="#47BDFF"/>
<path d="M10 45C10 47.6645 10.6467 50.3029 11.903 52.7646C13.1595 55.2263 15.0009 57.463 17.3224 59.3471C19.6438 61.2312 22.3998 62.7258 25.433 63.7454C28.4661 64.765 31.717 65.2899 35 65.2899C38.2831 65.2899 41.5339 64.765 44.5671 63.7454C47.6002 62.7258 50.3562 61.2312 52.6776 59.3471C54.9991 57.463 56.8407 55.2263 58.097 52.7646C59.3533 50.3029 60 47.6645 60 45H35H10Z" fill="#FF7D85"/>
<path d="M10 20L10 35H60V20L10 20Z" fill="#FF7D85"/>
</svg>
