<svg width="77" height="87" viewBox="0 0 77 87" fill="none" xmlns="http://www.w3.org/2000/svg">
<g clip-path="url(#clip0_3_8)">
<path d="M39 70C49.0782 70 58.7437 66.3125 65.8701 59.7487C72.9964 53.1849 77 44.2826 77 35C77 25.7174 72.9964 16.815 65.8701 10.2513C58.7437 3.6875 49.0782 1.80739e-06 39 0V35V70Z" fill="#FDC067"/>
<path d="M38.9904 18.1441C29.18 18.1059 19.7732 21.704 12.8393 28.147C5.90546 34.59 2.01269 43.3501 2.01726 52.5C2.02183 61.6499 5.92337 70.4403 12.8637 76.9374C19.804 83.4344 29.2144 87.1059 39.0249 87.1441L38.9904 18.1441Z" fill="#47BDFF"/>
</g>
<defs>
<clipPath id="clip0_3_8">
<rect width="77" height="87" fill="white"/>
</clipPath>
</defs>
</svg>
